<?xml version="1.0" standalone="no"?>
<!DOCTYPE svg PUBLIC "-//W3C//DTD SVG 20010904//EN"
 "http://www.w3.org/TR/2001/REC-SVG-20010904/DTD/svg10.dtd">
<svg version="1.0" xmlns="http://www.w3.org/2000/svg"
 width="1920.000000pt" height="1080.000000pt" viewBox="0 0 1920.000000 1080.000000"
 preserveAspectRatio="xMidYMid meet">

<g transform="translate(0.000000,1080.000000) scale(0.100000,-0.100000)"
fill="#000000" stroke="none">
<path d="M2050 2260 c0 -14 6 -20 17 -18 11 2 22 -6 28 -19 12 -28 35 -30 35
-3 0 13 -7 20 -20 20 -13 0 -20 7 -20 20 0 13 -7 20 -20 20 -13 0 -20 -7 -20
-20z"/>
<path d="M2130 2266 c0 -15 24 -28 34 -19 13 14 5 33 -14 33 -11 0 -20 -6 -20
-14z"/>
<path d="M3970 2260 c0 -14 6 -20 17 -18 11 2 22 -6 28 -19 12 -28 35 -30 35
-3 0 13 -7 20 -20 20 -13 0 -20 7 -20 20 0 13 -7 20 -20 20 -13 0 -20 -7 -20
-20z"/>
<path d="M4050 2266 c0 -15 24 -28 34 -19 13 14 5 33 -14 33 -11 0 -20 -6 -20
-14z"/>
<path d="M6530 2260 c0 -13 -7 -20 -20 -20 -11 0 -20 -7 -20 -15 0 -8 -9 -19
-20 -25 -23 -13 -27 -40 -5 -40 8 0 15 9 15 20 0 15 7 20 25 20 18 0 25 5 25
19 0 19 23 35 34 24 3 -4 6 -15 6 -25 0 -10 7 -18 15 -18 8 0 15 9 15 20 0 11
-7 20 -15 20 -8 0 -15 9 -15 20 0 13 -7 20 -20 20 -13 0 -20 -7 -20 -20z"/>
<path d="M6610 2260 c0 -13 7 -20 20 -20 13 0 20 7 20 20 0 13 -7 20 -20 20
-13 0 -20 -7 -20 -20z"/>
<path d="M9090 2264 c0 -9 9 -18 20 -21 11 -3 20 -14 20 -24 0 -12 7 -19 20
-19 13 0 20 7 20 18 0 10 3 21 6 25 11 11 34 -5 34 -25 0 -25 33 -21 38 5 2
12 -3 17 -17 17 -14 0 -21 6 -21 20 0 13 -7 20 -20 20 -13 0 -20 -7 -20 -20 0
-13 -7 -20 -20 -20 -13 0 -20 7 -20 20 0 13 -7 20 -20 20 -12 0 -20 -7 -20
-16z"/>
<path d="M12450 2264 c0 -9 9 -18 20 -21 11 -3 20 -14 20 -24 0 -12 7 -19 20
-19 13 0 20 7 20 18 0 10 3 21 6 25 11 11 34 -5 34 -25 0 -25 33 -21 38 5 2
12 -3 17 -17 17 -14 0 -21 6 -21 20 0 13 -7 20 -20 20 -13 0 -20 -7 -20 -20 0
-13 -7 -20 -20 -20 -13 0 -20 7 -20 20 0 13 -7 20 -20 20 -12 0 -20 -7 -20
-16z"/>
<path d="M15010 2260 c0 -14 6 -20 17 -18 11 2 22 -6 28 -19 12 -28 35 -30 35
-3 0 13 -7 20 -20 20 -13 0 -20 7 -20 20 0 13 -7 20 -20 20 -13 0 -20 -7 -20
-20z"/>
<path d="M15090 2266 c0 -15 24 -28 34 -19 13 14 5 33 -14 33 -11 0 -20 -6
-20 -14z"/>
<path d="M17570 2260 c0 -13 -7 -20 -20 -20 -11 0 -20 -7 -20 -15 0 -8 -9 -19
-20 -25 -23 -13 -27 -40 -5 -40 8 0 15 9 15 20 0 15 7 20 25 20 18 0 25 5 25
19 0 19 23 35 34 24 3 -4 6 -15 6 -25 0 -10 7 -18 15 -18 8 0 15 9 15 20 0 11
-7 20 -15 20 -8 0 -15 9 -15 20 0 13 -7 20 -20 20 -13 0 -20 -7 -20 -20z"/>
<path d="M17650 2260 c0 -13 7 -20 20 -20 13 0 20 7 20 20 0 13 -7 20 -20 20
-13 0 -20 -7 -20 -20z"/>
<path d="M50 2220 c0 -15 -7 -20 -25 -20 -18 0 -25 -5 -25 -20 0 -15 7 -20 25
-20 18 0 25 5 25 20 0 13 7 20 20 20 13 0 20 7 20 20 0 13 -7 20 -20 20 -13 0
-20 -7 -20 -20z"/>
<path d="M730 2224 c0 -9 -9 -18 -20 -21 -11 -3 -20 -14 -20 -24 0 -11 -6 -19
-14 -19 -8 0 -16 -7 -20 -15 -4 -10 1 -15 14 -15 11 0 20 7 20 15 0 8 7 15 15
15 14 0 19 12 16 33 0 4 10 7 24 7 18 0 25 5 25 20 0 13 -7 20 -20 20 -12 0
-20 -7 -20 -16z"/>
<path d="M1610 2220 c0 -13 -7 -20 -20 -20 -13 0 -20 -7 -20 -20 0 -13 7 -20
20 -20 13 0 20 7 20 20 0 13 7 20 20 20 13 0 20 7 20 20 0 13 -7 20 -20 20
-13 0 -20 -7 -20 -20z"/>
<path d="M1927 2220 c-4 -17 -14 -20 -61 -20 -49 0 -56 -2 -56 -20 0 -18 7
-20 55 -20 52 0 61 5 56 33 0 4 10 7 24 7 18 0 25 5 25 20 0 13 -7 20 -19 20
-10 0 -21 -9 -24 -20z"/>
<path d="M2010 2220 c0 -11 6 -20 13 -20 19 0 27 10 20 26 -8 21 -33 17 -33
-6z"/>
<path d="M2170 2220 c0 -15 7 -20 25 -20 18 0 25 -5 25 -20 0 -18 7 -20 75
-20 60 0 75 -3 75 -15 0 -8 7 -15 15 -15 8 0 15 7 15 15 0 8 -7 15 -15 15 -8
0 -15 9 -15 20 0 18 -7 20 -76 20 -67 0 -76 2 -81 20 -3 11 -14 20 -24 20 -12
0 -19 -7 -19 -20z"/>
<path d="M2650 2224 c0 -9 -9 -18 -20 -21 -11 -3 -20 -14 -20 -24 0 -11 -6
-19 -14 -19 -8 0 -16 -7 -20 -15 -4 -10 1 -15 14 -15 11 0 20 7 20 15 0 8 7
15 15 15 14 0 19 12 16 33 0 4 10 7 24 7 18 0 25 5 25 20 0 13 -7 20 -20 20
-12 0 -20 -7 -20 -16z"/>
<path d="M3530 2220 c0 -13 -7 -20 -20 -20 -13 0 -20 -7 -20 -20 0 -13 7 -20
20 -20 13 0 20 7 20 20 0 13 7 20 20 20 13 0 20 7 20 20 0 13 -7 20 -20 20
-13 0 -20 -7 -20 -20z"/>
<path d="M3847 2220 c-4 -17 -14 -20 -61 -20 -49 0 -56 -2 -56 -20 0 -18 7
-20 55 -20 52 0 61 5 56 33 0 4 10 7 24 7 18 0 25 5 25 20 0 13 -7 20 -19 20
-10 0 -21 -9 -24 -20z"/>
<path d="M3930 2220 c0 -11 6 -20 13 -20 19 0 27 10 20 26 -8 21 -33 17 -33
-6z"/>
<path d="M4090 2220 c0 -15 7 -20 25 -20 18 0 25 -5 25 -20 0 -18 7 -20 76
-20 66 0 75 2 72 18 -3 14 -16 18 -77 20 -63 3 -74 6 -78 22 -7 27 -43 26 -43
0z"/>
<path d="M4290 2219 c0 -25 33 -22 38 4 2 12 -3 17 -17 17 -15 0 -21 -6 -21
-21z"/>
<path d="M4370 2220 c0 -13 -7 -20 -20 -20 -13 0 -20 -7 -20 -20 0 -13 7 -20
20 -20 13 0 20 7 20 20 0 13 7 20 20 20 13 0 20 7 20 20 0 13 -7 20 -20 20
-13 0 -20 -7 -20 -20z"/>
<path d="M4530 2220 c0 -13 7 -20 20 -20 13 0 20 -7 20 -20 0 -13 7 -20 20
-20 13 0 20 7 20 20 0 13 -7 20 -20 20 -13 0 -20 7 -20 20 0 13 -7 20 -20 20
-13 0 -20 -7 -20 -20z"/>
<path d="M5210 2220 c0 -13 -7 -20 -20 -20 -13 0 -20 -7 -20 -20 0 -13 7 -20
20 -20 13 0 20 7 20 20 0 13 7 20 20 20 13 0 20 7 20 20 0 13 -7 20 -20 20
-13 0 -20 -7 -20 -20z"/>
<path d="M6090 2220 c0 -13 7 -20 20 -20 13 0 20 -7 20 -20 0 -13 7 -20 20
-20 13 0 20 7 20 20 0 13 -7 20 -20 20 -13 0 -20 7 -20 20 0 13 -7 20 -20 20
-13 0 -20 -7 -20 -20z"/>
<path d="M6410 2220 c0 -18 -7 -20 -60 -20 -53 0 -60 -2 -60 -20 0 -13 -7 -20
-20 -20 -13 0 -20 7 -20 20 0 13 -7 20 -20 20 -13 0 -20 -7 -20 -20 0 -11 -6
-20 -14 -20 -8 0 -16 -7 -20 -15 -4 -10 1 -15 14 -15 11 0 20 7 20 15 0 8 9
15 20 15 11 0 20 -7 20 -15 0 -8 9 -15 20 -15 11 0 20 7 20 15 0 12 13 15 60
15 53 0 60 2 60 20 0 13 7 20 20 20 13 0 20 7 20 20 0 13 -7 20 -20 20 -13 0
-20 -7 -20 -20z"/>
<path d="M6660 2220 c0 -11 7 -20 15 -20 8 0 15 9 15 20 0 11 -7 20 -15 20 -8
0 -15 -9 -15 -20z"/>
<path d="M6850 2220 c0 -13 7 -20 20 -20 13 0 20 7 20 20 0 13 -7 20 -20 20
-13 0 -20 -7 -20 -20z"/>
<path d="M6930 2220 c0 -13 7 -20 20 -20 13 0 20 -7 20 -20 0 -18 7 -20 55
-20 48 0 55 2 55 20 0 18 -7 20 -55 20 -48 0 -55 2 -55 20 0 13 -7 20 -20 20
-13 0 -20 -7 -20 -20z"/>
<path d="M7090 2220 c0 -13 7 -20 20 -20 13 0 20 7 20 20 0 13 -7 20 -20 20
-13 0 -20 -7 -20 -20z"/>
<path d="M7770 2220 c0 -13 7 -20 20 -20 13 0 20 -7 20 -20 0 -13 7 -20 20
-20 13 0 20 7 20 20 0 13 -7 20 -20 20 -13 0 -20 7 -20 20 0 13 -7 20 -20 20
-13 0 -20 -7 -20 -20z"/>
<path d="M8650 2224 c0 -9 -9 -18 -20 -21 -11 -3 -20 -14 -20 -24 0 -17 -8
-19 -60 -19 -47 0 -60 -3 -60 -15 0 -12 13 -15 60 -15 47 0 60 3 60 15 0 8 7
15 15 15 14 0 19 12 16 33 0 4 10 7 24 7 18 0 25 5 25 20 0 13 -7 20 -20 20
-12 0 -20 -7 -20 -16z"/>
<path d="M8970 2220 c0 -13 7 -20 20 -20 13 0 20 -7 20 -20 0 -13 7 -20 20
-20 13 0 20 7 20 20 0 13 7 20 19 20 14 0 19 6 18 20 -1 12 -8 20 -19 20 -11
0 -18 -7 -18 -20 0 -13 -7 -20 -20 -20 -13 0 -20 7 -20 20 0 13 -7 20 -20 20
-13 0 -20 -7 -20 -20z"/>
<path d="M9410 2220 c0 -18 -7 -20 -80 -20 -73 0 -80 -2 -80 -20 0 -18 7 -20
80 -20 73 0 80 2 80 20 0 13 7 20 20 20 13 0 20 -7 20 -20 0 -11 7 -20 15 -20
8 0 15 9 15 20 0 11 -7 20 -15 20 -8 0 -15 9 -15 20 0 13 -7 20 -20 20 -13 0
-20 -7 -20 -20z"/>
<path d="M9490 2220 c0 -13 7 -20 20 -20 13 0 20 7 20 20 0 13 -7 20 -20 20
-13 0 -20 -7 -20 -20z"/>
<path d="M9650 2220 c0 -18 -7 -20 -55 -20 -48 0 -55 -2 -55 -20 0 -18 7 -20
55 -20 48 0 55 2 55 20 0 13 7 20 20 20 13 0 20 7 20 20 0 13 -7 20 -20 20
-13 0 -20 -7 -20 -20z"/>
<path d="M10330 2224 c0 -9 -9 -18 -20 -21 -11 -3 -20 -14 -20 -24 0 -11 -6
-19 -14 -19 -8 0 -16 -7 -20 -15 -4 -10 1 -15 14 -15 11 0 20 7 20 15 0 8 7
15 15 15 14 0 19 12 16 33 0 4 10 7 24 7 18 0 25 5 25 20 0 13 -7 20 -20 20
-12 0 -20 -7 -20 -16z"/>
<path d="M11210 2220 c0 -13 -7 -20 -20 -20 -13 0 -20 -7 -20 -20 0 -13 7 -20
20 -20 13 0 20 7 20 20 0 13 7 20 20 20 13 0 20 7 20 20 0 13 -7 20 -20 20
-13 0 -20 -7 -20 -20z"/>
<path d="M12010 2224 c0 -9 -9 -18 -20 -21 -11 -3 -20 -14 -20 -24 0 -17 -8
-19 -60 -19 -47 0 -60 -3 -60 -15 0 -12 13 -15 60 -15 47 0 60 3 60 15 0 8 7
15 15 15 14 0 19 12 16 33 0 4 10 7 24 7 18 0 25 5 25 20 0 13 -7 20 -20 20
-12 0 -20 -7 -20 -16z"/>
<path d="M12330 2220 c0 -13 7 -20 20 -20 13 0 20 -7 20 -20 0 -13 7 -20 20
-20 13 0 20 7 20 20 0 13 7 20 19 20 14 0 19 6 18 20 -1 12 -8 20 -19 20 -11
0 -18 -7 -18 -20 0 -13 -7 -20 -20 -20 -13 0 -20 7 -20 20 0 13 -7 20 -20 20
-13 0 -20 -7 -20 -20z"/>
<path d="M12770 2220 c0 -18 -7 -20 -80 -20 -73 0 -80 -2 -80 -20 0 -18 7 -20
80 -20 73 0 80 2 80 20 0 13 7 20 20 20 13 0 20 -7 20 -20 0 -11 7 -20 15 -20
8 0 15 9 15 20 0 11 -7 20 -15 20 -8 0 -15 9 -15 20 0 13 -7 20 -20 20 -13 0
-20 -7 -20 -20z"/>
<path d="M12850 2220 c0 -13 7 -20 20 -20 13 0 20 7 20 20 0 13 -7 20 -20 20
-13 0 -20 -7 -20 -20z"/>
<path d="M13010 2220 c0 -18 -7 -20 -55 -20 -48 0 -55 -2 -55 -20 0 -18 7 -20
55 -20 48 0 55 2 55 20 0 13 7 20 20 20 13 0 20 7 20 20 0 13 -7 20 -20 20
-13 0 -20 -7 -20 -20z"/>
<path d="M13690 2224 c0 -9 -9 -18 -20 -21 -11 -3 -20 -14 -20 -24 0 -11 -6
-19 -14 -19 -8 0 -16 -7 -20 -15 -4 -10 1 -15 14 -15 11 0 20 7 20 15 0 8 7
15 15 15 14 0 19 12 16 33 0 4 10 7 24 7 18 0 25 5 25 20 0 13 -7 20 -20 20
-12 0 -20 -7 -20 -16z"/>
<path d="M14570 2220 c0 -13 -7 -20 -20 -20 -13 0 -20 -7 -20 -20 0 -13 7 -20
20 -20 13 0 20 7 20 20 0 13 7 20 20 20 13 0 20 7 20 20 0 13 -7 20 -20 20
-13 0 -20 -7 -20 -20z"/>
<path d="M14887 2220 c-4 -17 -14 -20 -61 -20 -49 0 -56 -2 -56 -20 0 -18 7
-20 55 -20 52 0 61 5 56 33 0 4 10 7 24 7 18 0 25 5 25 20 0 13 -7 20 -19 20
-10 0 -21 -9 -24 -20z"/>
<path d="M14970 2220 c0 -11 6 -20 13 -20 19 0 27 10 20 26 -8 21 -33 17 -33
-6z"/>
<path d="M15130 2220 c0 -15 7 -20 25 -20 18 0 25 -5 25 -20 0 -18 7 -20 76
-20 66 0 75 2 72 18 -3 14 -16 18 -77 20 -63 3 -74 6 -78 22 -7 27 -43 26 -43
0z"/>
<path d="M15330 2219 c0 -25 33 -22 38 4 2 12 -3 17 -17 17 -15 0 -21 -6 -21
-21z"/>
<path d="M15410 2220 c0 -13 -7 -20 -20 -20 -13 0 -20 -7 -20 -20 0 -13 7 -20
20 -20 13 0 20 7 20 20 0 13 7 20 20 20 13 0 20 7 20 20 0 13 -7 20 -20 20
-13 0 -20 -7 -20 -20z"/>
<path d="M15570 2220 c0 -13 7 -20 20 -20 13 0 20 -7 20 -20 0 -13 7 -20 20
-20 13 0 20 7 20 20 0 13 -7 20 -20 20 -13 0 -20 7 -20 20 0 13 -7 20 -20 20
-13 0 -20 -7 -20 -20z"/>
<path d="M16250 2220 c0 -13 -7 -20 -20 -20 -13 0 -20 -7 -20 -20 0 -13 7 -20
20 -20 13 0 20 7 20 20 0 13 7 20 20 20 13 0 20 7 20 20 0 13 -7 20 -20 20
-13 0 -20 -7 -20 -20z"/>
<path d="M17130 2220 c0 -13 7 -20 20 -20 13 0 20 -7 20 -20 0 -13 7 -20 20
-20 13 0 20 7 20 20 0 13 -7 20 -20 20 -13 0 -20 7 -20 20 0 13 -7 20 -20 20
-13 0 -20 -7 -20 -20z"/>
<path d="M17450 2220 c0 -18 -7 -20 -60 -20 -53 0 -60 -2 -60 -20 0 -13 -7
-20 -20 -20 -13 0 -20 7 -20 20 0 13 -7 20 -20 20 -13 0 -20 -7 -20 -20 0 -11
-6 -20 -14 -20 -8 0 -16 -7 -20 -15 -4 -10 1 -15 14 -15 11 0 20 7 20 15 0 8
9 15 20 15 11 0 20 -7 20 -15 0 -8 9 -15 20 -15 11 0 20 7 20 15 0 12 13 15
60 15 53 0 60 2 60 20 0 13 7 20 20 20 13 0 20 7 20 20 0 13 -7 20 -20 20 -13
0 -20 -7 -20 -20z"/>
<path d="M17700 2220 c0 -11 7 -20 15 -20 8 0 15 9 15 20 0 11 -7 20 -15 20
-8 0 -15 -9 -15 -20z"/>
<path d="M17890 2220 c0 -13 7 -20 20 -20 13 0 20 7 20 20 0 13 -7 20 -20 20
-13 0 -20 -7 -20 -20z"/>
<path d="M17970 2220 c0 -13 7 -20 20 -20 13 0 20 -7 20 -20 0 -18 7 -20 55
-20 48 0 55 2 55 20 0 18 -7 20 -55 20 -48 0 -55 2 -55 20 0 13 -7 20 -20 20
-13 0 -20 -7 -20 -20z"/>
<path d="M18130 2220 c0 -13 7 -20 20 -20 13 0 20 7 20 20 0 13 -7 20 -20 20
-13 0 -20 -7 -20 -20z"/>
<path d="M18810 2220 c0 -13 7 -20 20 -20 13 0 20 -7 20 -20 0 -13 7 -20 20
-20 13 0 20 7 20 20 0 13 -7 20 -20 20 -13 0 -20 7 -20 20 0 13 -7 20 -20 20
-13 0 -20 -7 -20 -20z"/>
<path d="M97 2193 c-14 -13 -6 -33 13 -33 11 0 20 -7 20 -15 0 -11 11 -15 40
-15 29 0 40 4 40 15 0 8 9 15 20 15 11 0 20 -7 20 -15 0 -12 16 -15 80 -15 64
0 80 3 80 15 0 8 9 15 20 15 11 0 20 -7 20 -15 0 -8 7 -15 15 -15 8 0 15 7 15
15 0 8 -7 15 -15 15 -8 0 -15 9 -15 20 0 13 -7 20 -20 20 -13 0 -20 -7 -20
-20 0 -18 -7 -20 -79 -20 -70 0 -79 2 -84 20 -3 11 -12 20 -21 20 -9 0 -16 -8
-16 -20 0 -17 -7 -20 -40 -20 -33 0 -40 3 -40 20 0 19 -20 27 -33 13z"/>
<path d="M490 2180 c0 -13 7 -20 20 -20 13 0 20 7 20 20 0 13 -7 20 -20 20
-13 0 -20 -7 -20 -20z"/>
<path d="M610 2180 c0 -13 7 -20 20 -20 13 0 20 7 20 20 0 13 -7 20 -20 20
-13 0 -20 -7 -20 -20z"/>
<path d="M780 2180 c0 -11 7 -20 15 -20 8 0 15 -7 15 -15 0 -8 9 -15 20 -15
13 0 18 5 14 15 -4 8 -12 15 -20 15 -8 0 -14 9 -14 20 0 11 -7 20 -15 20 -8 0
-15 -9 -15 -20z"/>
<path d="M850 2181 c0 -13 8 -21 23 -23 12 -2 21 -9 20 -16 -2 -6 6 -12 17
-12 11 0 20 7 20 15 0 8 -9 15 -20 15 -13 0 -20 7 -20 20 0 13 -7 20 -20 20
-13 0 -20 -7 -20 -19z"/>
<path d="M1657 2193 c-14 -13 -6 -33 13 -33 11 0 20 -7 20 -15 0 -8 9 -15 20
-15 11 0 20 7 20 15 0 8 9 15 20 15 11 0 20 -7 20 -15 0 -8 9 -15 20 -15 13 0
18 5 14 15 -4 8 -12 15 -20 15 -8 0 -14 9 -14 20 0 13 -7 20 -20 20 -13 0 -20
-7 -20 -20 0 -13 -7 -20 -20 -20 -13 0 -20 7 -20 20 0 19 -20 27 -33 13z"/>
<path d="M1980 2181 c0 -12 6 -21 16 -21 9 0 14 7 12 17 -5 25 -28 28 -28 4z"/>
<path d="M2410 2180 c0 -13 7 -20 20 -20 13 0 20 7 20 20 0 13 -7 20 -20 20
-13 0 -20 -7 -20 -20z"/>
<path d="M2530 2180 c0 -13 7 -20 20 -20 13 0 20 7 20 20 0 13 -7 20 -20 20
-13 0 -20 -7 -20 -20z"/>
<path d="M2700 2180 c0 -11 7 -20 15 -20 8 0 15 -7 15 -15 0 -8 9 -15 20 -15
13 0 18 5 14 15 -4 8 -12 15 -20 15 -8 0 -14 9 -14 20 0 11 -7 20 -15 20 -8 0
-15 -9 -15 -20z"/>
<path d="M2770 2181 c0 -13 8 -21 23 -23 12 -2 21 -9 20 -16 -2 -6 6 -12 17
-12 11 0 20 7 20 15 0 8 -9 15 -20 15 -13 0 -20 7 -20 20 0 13 -7 20 -20 20
-13 0 -20 -7 -20 -19z"/>
<path d="M3577 2193 c-14 -13 -6 -33 13 -33 11 0 20 -7 20 -15 0 -8 9 -15 20
-15 11 0 20 7 20 15 0 8 9 15 20 15 11 0 20 -7 20 -15 0 -8 9 -15 20 -15 13 0
18 5 14 15 -4 8 -12 15 -20 15 -8 0 -14 9 -14 20 0 13 -7 20 -20 20 -13 0 -20
-7 -20 -20 0 -13 -7 -20 -20 -20 -13 0 -20 7 -20 20 0 19 -20 27 -33 13z"/>
<path d="M3900 2181 c0 -12 6 -21 16 -21 9 0 14 7 12 17 -5 25 -28 28 -28 4z"/>
<path d="M4417 2194 c-4 -4 -7 -13 -7 -21 0 -9 17 -13 61 -13 52 0 60 2 57 18
-2 13 -15 18 -53 20 -28 2 -54 0 -58 -4z"/>
<path d="M4690 2180 c0 -13 7 -20 20 -20 13 0 20 7 20 20 0 13 -7 20 -20 20
-13 0 -20 -7 -20 -20z"/>
<path d="M4890 2180 c0 -18 -7 -20 -75 -20 -60 0 -75 -3 -75 -15 0 -12 15 -15
75 -15 60 0 75 3 75 15 0 8 9 15 20 15 11 0 20 -7 20 -15 0 -8 9 -15 20 -15
11 0 20 7 20 15 0 8 9 15 20 15 11 0 20 -7 20 -15 0 -11 11 -15 40 -15 29 0
40 4 40 15 0 8 9 15 20 15 11 0 20 -7 20 -15 0 -8 9 -15 20 -15 13 0 18 5 14
15 -4 8 -12 15 -20 15 -8 0 -14 9 -14 20 0 12 -7 20 -16 20 -9 0 -18 -9 -21
-20 -4 -16 -14 -20 -44 -20 -32 0 -39 3 -39 20 0 13 -7 20 -20 20 -13 0 -20
-7 -20 -20 0 -13 -7 -20 -19 -20 -10 0 -21 9 -24 20 -3 11 -12 20 -21 20 -9 0
-16 -8 -16 -20z"/>
<path d="M5257 2193 c-14 -13 -6 -33 13 -33 11 0 20 -7 20 -15 0 -8 9 -15 20
-15 11 0 20 7 20 15 0 8 9 15 20 15 11 0 20 -7 20 -15 0 -8 9 -15 20 -15 11 0
20 7 20 15 0 8 -9 15 -20 15 -13 0 -20 7 -20 20 0 13 -7 20 -20 20 -13 0 -20
-7 -20 -20 0 -13 -7 -20 -19 -20 -10 0 -21 9 -24 20 -5 20 -18 26 -30 13z"/>
<path d="M6053 2181 c-5 -18 -13 -21 -65 -21 -51 0 -59 -2 -56 -17 2 -10 9
-18 16 -17 6 1 32 2 57 3 33 1 45 5 45 16 0 9 9 15 21 15 14 0 19 5 17 17 -5
25 -29 28 -35 4z"/>
<path d="M6697 2193 c-4 -3 -7 -12 -7 -20 0 -10 19 -13 75 -13 68 0 75 2 75
20 0 18 -7 20 -68 20 -38 0 -72 -3 -75 -7z"/>
<path d="M6900 2181 c0 -12 6 -21 16 -21 9 0 14 7 12 17 -5 25 -28 28 -28 4z"/>
<path d="M7140 2180 c0 -11 7 -20 15 -20 8 0 15 9 15 20 0 11 -7 20 -15 20 -8
0 -15 -9 -15 -20z"/>
<path d="M7253 2180 c-3 -11 -14 -20 -24 -20 -11 0 -19 -4 -19 -9 0 -5 -8 -12
-17 -14 -10 -3 -1 -5 20 -6 27 -1 37 3 37 14 0 8 9 15 20 15 11 0 20 -7 20
-15 0 -12 15 -15 75 -15 60 0 75 3 75 15 0 12 -15 15 -75 15 -68 0 -75 2 -75
20 0 12 -7 20 -16 20 -9 0 -18 -9 -21 -20z"/>
<path d="M7450 2180 c0 -13 7 -20 20 -20 13 0 20 7 20 20 0 13 -7 20 -20 20
-13 0 -20 -7 -20 -20z"/>
<path d="M7530 2180 c0 -11 -7 -20 -15 -20 -8 0 -15 -7 -15 -15 0 -8 7 -15 15
-15 8 0 15 7 15 15 0 8 9 15 20 15 11 0 20 -7 20 -15 0 -11 11 -15 40 -15 29
0 40 4 40 15 0 8 9 15 20 15 11 0 20 -7 20 -15 0 -8 9 -15 20 -15 11 0 20 7
20 15 0 9 9 15 21 15 14 0 19 5 17 17 -5 26 -38 29 -38 4 0 -14 -6 -21 -20
-21 -13 0 -20 7 -20 20 0 13 -7 20 -20 20 -13 0 -20 -7 -20 -20 0 -17 -7 -20
-39 -20 -30 0 -40 4 -44 20 -3 11 -12 20 -21 20 -9 0 -16 -8 -16 -20z"/>
<path d="M7890 2180 c0 -11 -6 -20 -14 -20 -8 0 -16 -7 -20 -15 -4 -10 1 -15
14 -15 11 0 20 7 20 15 0 8 9 15 20 15 11 0 20 -7 20 -15 0 -8 9 -15 20 -15
11 0 20 7 20 15 0 8 -9 15 -20 15 -13 0 -20 7 -20 20 0 13 -7 20 -20 20 -13 0
-20 -7 -20 -20z"/>
<path d="M8700 2180 c0 -11 7 -20 15 -20 8 0 15 -7 15 -15 0 -8 9 -15 20 -15
13 0 18 5 14 15 -4 8 -12 15 -20 15 -8 0 -14 9 -14 20 0 11 -7 20 -15 20 -8 0
-15 -9 -15 -20z"/>
<path d="M8770 2180 c0 -13 7 -20 20 -20 13 0 20 7 20 20 0 13 -7 20 -20 20
-13 0 -20 -7 -20 -20z"/>
<path d="M8850 2180 c0 -11 -6 -20 -14 -20 -8 0 -16 -7 -20 -15 -4 -10 1 -15
14 -15 11 0 20 7 20 15 0 12 13 15 61 15 52 0 60 2 57 18 -2 13 -15 18 -61 20
-52 3 -57 1 -57 -18z"/>
<path d="M9697 2193 c-14 -13 -6 -33 13 -33 11 0 20 -7 20 -15 0 -11 11 -15
40 -15 29 0 40 4 40 15 0 8 9 15 20 15 11 0 20 -7 20 -15 0 -12 16 -15 80 -15
64 0 80 3 80 15 0 8 9 15 20 15 11 0 20 -7 20 -15 0 -8 7 -15 15 -15 8 0 15 7
15 15 0 8 -7 15 -15 15 -8 0 -15 9 -15 20 0 13 -7 20 -20 20 -13 0 -20 -7 -20
-20 0 -18 -7 -20 -79 -20 -70 0 -79 2 -84 20 -3 11 -12 20 -21 20 -9 0 -16 -8
-16 -20 0 -17 -7 -20 -40 -20 -33 0 -40 3 -40 20 0 19 -20 27 -33 13z"/>
<path d="M10090 2180 c0 -13 7 -20 20 -20 13 0 20 7 20 20 0 13 -7 20 -20 20
-13 0 -20 -7 -20 -20z"/>
<path d="M10210 2180 c0 -13 7 -20 20 -20 13 0 20 7 20 20 0 13 -7 20 -20 20
-13 0 -20 -7 -20 -20z"/>
<path d="M10380 2180 c0 -11 7 -20 15 -20 8 0 15 -7 15 -15 0 -8 9 -15 20 -15
13 0 18 5 14 15 -4 8 -12 15 -20 15 -8 0 -14 9 -14 20 0 11 -7 20 -15 20 -8 0
-15 -9 -15 -20z"/>
<path d="M10450 2181 c0 -13 8 -21 23 -23 12 -2 21 -9 20 -16 -2 -6 6 -12 17
-12 11 0 20 7 20 15 0 8 -9 15 -20 15 -13 0 -20 7 -20 20 0 13 -7 20 -20 20
-13 0 -20 -7 -20 -19z"/>
<path d="M11257 2193 c-14 -13 -6 -33 13 -33 11 0 20 -7 20 -15 0 -8 9 -15 20
-15 11 0 20 7 20 15 0 8 -9 15 -20 15 -13 0 -20 7 -20 20 0 19 -20 27 -33 13z"/>
<path d="M12060 2180 c0 -11 7 -20 15 -20 8 0 15 -7 15 -15 0 -8 9 -15 20 -15
13 0 18 5 14 15 -4 8 -12 15 -20 15 -8 0 -14 9 -14 20 0 11 -7 20 -15 20 -8 0
-15 -9 -15 -20z"/>
<path d="M12130 2180 c0 -13 7 -20 20 -20 13 0 20 7 20 20 0 13 -7 20 -20 20
-13 0 -20 -7 -20 -20z"/>
<path d="M12210 2180 c0 -11 -6 -20 -14 -20 -8 0 -16 -7 -20 -15 -4 -10 1 -15
14 -15 11 0 20 7 20 15 0 12 13 15 61 15 52 0 60 2 57 18 -2 13 -15 18 -61 20
-52 3 -57 1 -57 -18z"/>
<path d="M13057 2193 c-14 -13 -6 -33 13 -33 11 0 20 -7 20 -15 0 -11 11 -15
40 -15 29 0 40 4 40 15 0 8 9 15 20 15 11 0 20 -7 20 -15 0 -12 16 -15 80 -15
64 0 80 3 80 15 0 8 9 15 20 15 11 0 20 -7 20 -15 0 -8 7 -15 15 -15 8 0 15 7
15 15 0 8 -7 15 -15 15 -8 0 -15 9 -15 20 0 13 -7 20 -20 20 -13 0 -20 -7 -20
-20 0 -18 -7 -20 -79 -20 -70 0 -79 2 -84 20 -3 11 -12 20 -21 20 -9 0 -16 -8
-16 -20 0 -17 -7 -20 -40 -20 -33 0 -40 3 -40 20 0 19 -20 27 -33 13z"/>
<path d="M13450 2180 c0 -13 7 -20 20 -20 13 0 20 7 20 20 0 13 -7 20 -20 20
-13 0 -20 -7 -20 -20z"/>
<path d="M13570 2180 c0 -13 7 -20 20 -20 13 0 20 7 20 20 0 13 -7 20 -20 20
-13 0 -20 -7 -20 -20z"/>
<path d="M13740 2180 c0 -11 7 -20 15 -20 8 0 15 -7 15 -15 0 -8 9 -15 20 -15
13 0 18 5 14 15 -4 8 -12 15 -20 15 -8 0 -14 9 -14 20 0 11 -7 20 -15 20 -8 0
-15 -9 -15 -20z"/>
<path d="M13810 2181 c0 -13 8 -21 23 -23 12 -2 21 -9 20 -16 -2 -6 6 -12 17
-12 11 0 20 7 20 15 0 8 -9 15 -20 15 -13 0 -20 7 -20 20 0 13 -7 20 -20 20
-13 0 -20 -7 -20 -19z"/>
<path d="M14617 2193 c-14 -13 -6 -33 13 -33 11 0 20 -7 20 -15 0 -8 9 -15 20
-15 11 0 20 7 20 15 0 8 9 15 20 15 11 0 20 -7 20 -15 0 -8 9 -15 20 -15 13 0
18 5 14 15 -4 8 -12 15 -20 15 -8 0 -14 9 -14 20 0 13 -7 20 -20 20 -13 0 -20
-7 -20 -20 0 -13 -7 -20 -20 -20 -13 0 -20 7 -20 20 0 19 -20 27 -33 13z"/>
<path d="M14940 2181 c0 -12 6 -21 16 -21 9 0 14 7 12 17 -5 25 -28 28 -28 4z"/>
<path d="M15457 2194 c-4 -4 -7 -13 -7 -21 0 -9 17 -13 61 -13 52 0 60 2 57
18 -2 13 -15 18 -53 20 -28 2 -54 0 -58 -4z"/>
<path d="M15730 2180 c0 -13 7 -20 20 -20 13 0 20 7 20 20 0 13 -7 20 -20 20
-13 0 -20 -7 -20 -20z"/>
<path d="M15930 2180 c0 -18 -7 -20 -75 -20 -60 0 -75 -3 -75 -15 0 -12 15
-15 75 -15 60 0 75 3 75 15 0 8 9 15 20 15 11 0 20 -7 20 -15 0 -8 9 -15 20
-15 11 0 20 7 20 15 0 8 9 15 20 15 11 0 20 -7 20 -15 0 -11 11 -15 40 -15 29
0 40 4 40 15 0 8 9 15 20 15 11 0 20 -7 20 -15 0 -8 9 -15 20 -15 13 0 18 5
14 15 -4 8 -12 15 -20 15 -8 0 -14 9 -14 20 0 12 -7 20 -16 20 -9 0 -18 -9
-21 -20 -4 -16 -14 -20 -44 -20 -32 0 -39 3 -39 20 0 13 -7 20 -20 20 -13 0
-20 -7 -20 -20 0 -13 -7 -20 -19 -20 -10 0 -21 9 -24 20 -3 11 -12 20 -21 20
-9 0 -16 -8 -16 -20z"/>
<path d="M16297 2193 c-14 -13 -6 -33 13 -33 11 0 20 -7 20 -15 0 -8 9 -15 20
-15 11 0 20 7 20 15 0 8 9 15 20 15 11 0 20 -7 20 -15 0 -8 9 -15 20 -15 11 0
20 7 20 15 0 8 -9 15 -20 15 -13 0 -20 7 -20 20 0 13 -7 20 -20 20 -13 0 -20
-7 -20 -20 0 -13 -7 -20 -19 -20 -10 0 -21 9 -24 20 -5 20 -18 26 -30 13z"/>
<path d="M17093 2181 c-5 -18 -13 -21 -64 -21 -45 0 -59 -4 -59 -14 0 -17 28
-23 83 -17 23 2 37 8 37 17 0 8 9 14 21 14 14 0 19 5 17 17 -5 25 -29 28 -35
4z"/>
<path d="M17737 2193 c-4 -3 -7 -12 -7 -20 0 -10 19 -13 75 -13 68 0 75 2 75
20 0 18 -7 20 -68 20 -38 0 -72 -3 -75 -7z"/>
<path d="M17940 2181 c0 -12 6 -21 16 -21 9 0 14 7 12 17 -5 25 -28 28 -28 4z"/>
<path d="M18180 2180 c0 -11 7 -20 15 -20 8 0 15 -7 15 -15 0 -11 11 -15 40
-15 29 0 40 4 40 15 0 8 9 15 20 15 11 0 20 -7 20 -15 0 -12 15 -15 75 -15 60
0 75 3 75 15 0 12 -15 15 -75 15 -68 0 -75 2 -75 20 0 12 -7 20 -16 20 -9 0
-18 -9 -21 -20 -4 -16 -14 -20 -44 -20 -32 0 -39 3 -39 20 0 11 -7 20 -15 20
-8 0 -15 -9 -15 -20z"/>
<path d="M18490 2180 c0 -13 7 -20 20 -20 13 0 20 7 20 20 0 13 -7 20 -20 20
-13 0 -20 -7 -20 -20z"/>
<path d="M18570 2180 c0 -11 -7 -20 -15 -20 -8 0 -15 -7 -15 -15 0 -8 7 -15
15 -15 8 0 15 7 15 15 0 8 9 15 20 15 11 0 20 -7 20 -15 0 -11 11 -15 40 -15
29 0 40 4 40 15 0 8 9 15 20 15 11 0 20 -7 20 -15 0 -8 9 -15 20 -15 11 0 20
7 20 15 0 9 9 15 21 15 25 0 22 33 -4 38 -12 2 -17 -3 -17 -17 0 -14 -6 -21
-20 -21 -13 0 -20 7 -20 20 0 13 -7 20 -20 20 -13 0 -20 -7 -20 -20 0 -17 -7
-20 -39 -20 -30 0 -40 4 -44 20 -3 11 -12 20 -21 20 -9 0 -16 -8 -16 -20z"/>
<path d="M18930 2180 c0 -11 -6 -20 -14 -20 -8 0 -16 -7 -20 -15 -4 -10 1 -15
14 -15 11 0 20 7 20 15 0 8 9 15 20 15 11 0 20 -7 20 -15 0 -8 9 -15 20 -15
11 0 20 7 20 15 0 8 -9 15 -20 15 -13 0 -20 7 -20 20 0 13 -7 20 -20 20 -13 0
-20 -7 -20 -20z"/>
<path d="M540 2145 c0 -10 11 -15 35 -15 26 0 33 3 29 15 -4 9 -19 15 -35 15
-19 0 -29 -5 -29 -15z"/>
<path d="M1050 2145 c0 -8 9 -15 20 -15 11 0 20 7 20 15 0 8 -9 15 -20 15 -11
0 -20 -7 -20 -15z"/>
<path d="M1130 2145 c0 -8 9 -15 20 -15 11 0 20 7 20 15 0 8 -9 15 -20 15 -11
0 -20 -7 -20 -15z"/>
<path d="M1206 2145 c-4 -12 6 -15 59 -15 51 0 65 3 65 15 0 12 -13 15 -59 15
-43 0 -60 -4 -65 -15z"/>
<path d="M1370 2145 c0 -8 9 -15 20 -15 11 0 20 7 20 15 0 8 -9 15 -20 15 -11
0 -20 -7 -20 -15z"/>
<path d="M1446 2145 c-4 -12 6 -15 59 -15 53 0 63 3 59 15 -4 11 -21 15 -59
15 -38 0 -55 -4 -59 -15z"/>
<path d="M2460 2145 c0 -10 11 -15 35 -15 26 0 33 3 29 15 -4 9 -19 15 -35 15
-19 0 -29 -5 -29 -15z"/>
<path d="M2970 2145 c0 -8 9 -15 20 -15 11 0 20 7 20 15 0 8 -9 15 -20 15 -11
0 -20 -7 -20 -15z"/>
<path d="M3050 2145 c0 -8 9 -15 20 -15 11 0 20 7 20 15 0 8 -9 15 -20 15 -11
0 -20 -7 -20 -15z"/>
<path d="M3130 2145 c0 -12 13 -15 60 -15 47 0 60 3 60 15 0 12 -13 15 -60 15
-47 0 -60 -3 -60 -15z"/>
<path d="M3290 2145 c0 -8 9 -15 20 -15 11 0 20 7 20 15 0 8 -9 15 -20 15 -11
0 -20 -7 -20 -15z"/>
<path d="M3370 2145 c0 -12 13 -15 60 -15 49 0 58 3 54 15 -5 11 -21 15 -60
15 -41 0 -54 -4 -54 -15z"/>
<path d="M4620 2142 c0 -15 6 -17 34 -14 43 5 38 32 -5 32 -21 0 -29 -5 -29
-18z"/>
<path d="M5530 2145 c0 -8 9 -15 20 -15 11 0 20 7 20 15 0 8 -9 15 -20 15 -11
0 -20 -7 -20 -15z"/>
<path d="M5610 2145 c0 -8 9 -15 20 -15 11 0 20 7 20 15 0 8 -9 15 -20 15 -11
0 -20 -7 -20 -15z"/>
<path d="M5692 2143 c2 -10 9 -18 16 -17 6 1 32 2 57 3 33 1 45 5 45 16 0 12
-13 15 -61 15 -52 0 -60 -2 -57 -17z"/>
<path d="M5850 2145 c0 -8 9 -15 20 -15 11 0 20 7 20 15 0 8 -9 15 -20 15 -11
0 -20 -7 -20 -15z"/>
<path d="M8090 2145 c0 -8 9 -15 20 -15 11 0 20 7 20 15 0 8 -9 15 -20 15 -11
0 -20 -7 -20 -15z"/>
<path d="M8170 2145 c0 -8 9 -15 20 -15 11 0 20 7 20 15 0 8 -9 15 -20 15 -11
0 -20 -7 -20 -15z"/>
<path d="M8250 2145 c0 -12 13 -15 60 -15 47 0 60 3 60 15 0 12 -13 15 -60 15
-47 0 -60 -3 -60 -15z"/>
<path d="M8410 2145 c0 -8 9 -15 20 -15 11 0 20 7 20 15 0 8 -9 15 -20 15 -11
0 -20 -7 -20 -15z"/>
<path d="M10140 2145 c0 -10 11 -15 35 -15 26 0 33 3 29 15 -4 9 -19 15 -35
15 -19 0 -29 -5 -29 -15z"/>
<path d="M10650 2145 c0 -8 9 -15 20 -15 11 0 20 7 20 15 0 8 -9 15 -20 15
-11 0 -20 -7 -20 -15z"/>
<path d="M10730 2145 c0 -8 9 -15 20 -15 11 0 20 7 20 15 0 8 -9 15 -20 15
-11 0 -20 -7 -20 -15z"/>
<path d="M10806 2145 c-4 -12 6 -15 59 -15 51 0 65 3 65 15 0 12 -13 15 -59
15 -43 0 -60 -4 -65 -15z"/>
<path d="M10970 2145 c0 -8 9 -15 20 -15 11 0 20 7 20 15 0 8 -9 15 -20 15
-11 0 -20 -7 -20 -15z"/>
<path d="M11046 2145 c-4 -12 6 -15 59 -15 53 0 63 3 59 15 -4 11 -21 15 -59
15 -38 0 -55 -4 -59 -15z"/>
<path d="M11450 2145 c0 -8 9 -15 20 -15 11 0 20 7 20 15 0 8 -9 15 -20 15
-11 0 -20 -7 -20 -15z"/>
<path d="M11530 2145 c0 -8 9 -15 20 -15 11 0 20 7 20 15 0 8 -9 15 -20 15
-11 0 -20 -7 -20 -15z"/>
<path d="M11610 2145 c0 -12 13 -15 60 -15 47 0 60 3 60 15 0 12 -13 15 -60
15 -47 0 -60 -3 -60 -15z"/>
<path d="M11770 2145 c0 -8 9 -15 20 -15 11 0 20 7 20 15 0 8 -9 15 -20 15
-11 0 -20 -7 -20 -15z"/>
<path d="M13500 2145 c0 -10 11 -15 35 -15 26 0 33 3 29 15 -4 9 -19 15 -35
15 -19 0 -29 -5 -29 -15z"/>
<path d="M14010 2145 c0 -8 9 -15 20 -15 11 0 20 7 20 15 0 8 -9 15 -20 15
-11 0 -20 -7 -20 -15z"/>
<path d="M14090 2145 c0 -8 9 -15 20 -15 11 0 20 7 20 15 0 8 -9 15 -20 15
-11 0 -20 -7 -20 -15z"/>
<path d="M14166 2145 c-4 -12 6 -15 59 -15 51 0 65 3 65 15 0 12 -13 15 -59
15 -43 0 -60 -4 -65 -15z"/>
<path d="M14330 2145 c0 -8 9 -15 20 -15 11 0 20 7 20 15 0 8 -9 15 -20 15
-11 0 -20 -7 -20 -15z"/>
<path d="M14406 2145 c-4 -12 6 -15 59 -15 53 0 63 3 59 15 -4 11 -21 15 -59
15 -38 0 -55 -4 -59 -15z"/>
<path d="M15660 2148 c0 -14 8 -18 35 -18 26 0 33 3 29 15 -7 18 -30 20 -37 3
-4 -10 -8 -9 -16 2 -9 13 -11 13 -11 -2z"/>
<path d="M16570 2145 c0 -8 9 -15 20 -15 11 0 20 7 20 15 0 8 -9 15 -20 15
-11 0 -20 -7 -20 -15z"/>
<path d="M16650 2145 c0 -8 9 -15 20 -15 11 0 20 7 20 15 0 8 -9 15 -20 15
-11 0 -20 -7 -20 -15z"/>
<path d="M16730 2146 c0 -17 28 -23 83 -17 23 2 37 8 37 17 0 10 -15 14 -60
14 -45 0 -60 -3 -60 -14z"/>
<path d="M16890 2145 c0 -8 9 -15 20 -15 11 0 20 7 20 15 0 8 -9 15 -20 15
-11 0 -20 -7 -20 -15z"/>
<path d="M19130 2145 c0 -8 9 -15 20 -15 11 0 20 7 20 15 0 8 -9 15 -20 15
-11 0 -20 -7 -20 -15z"/>
<path d="M930 2100 c0 -18 7 -20 60 -20 53 0 60 2 60 20 0 18 -7 20 -60 20
-53 0 -60 -2 -60 -20z"/>
<path d="M1090 2100 c0 -13 7 -20 20 -20 13 0 20 7 20 20 0 13 -7 20 -20 20
-13 0 -20 -7 -20 -20z"/>
<path d="M1170 2100 c0 -14 7 -20 21 -20 15 0 19 4 15 16 -3 9 -6 18 -6 20 0
2 -7 4 -15 4 -8 0 -15 -9 -15 -20z"/>
<path d="M1330 2100 c0 -13 7 -20 20 -20 13 0 20 7 20 20 0 13 -7 20 -20 20
-13 0 -20 -7 -20 -20z"/>
<path d="M1410 2100 c0 -14 7 -20 21 -20 15 0 19 4 15 16 -3 9 -6 18 -6 20 0
2 -7 4 -15 4 -8 0 -15 -9 -15 -20z"/>
<path d="M2850 2100 c0 -18 7 -20 60 -20 53 0 60 2 60 20 0 18 -7 20 -60 20
-53 0 -60 -2 -60 -20z"/>
<path d="M3010 2100 c0 -13 7 -20 20 -20 13 0 20 7 20 20 0 13 -7 20 -20 20
-13 0 -20 -7 -20 -20z"/>
<path d="M3090 2100 c0 -14 7 -20 21 -20 15 0 19 4 15 16 -3 9 -6 18 -6 20 0
2 -7 4 -15 4 -8 0 -15 -9 -15 -20z"/>
<path d="M3250 2100 c0 -13 7 -20 20 -20 13 0 20 7 20 20 0 13 -7 20 -20 20
-13 0 -20 -7 -20 -20z"/>
<path d="M3330 2100 c0 -14 7 -20 21 -20 15 0 19 4 15 16 -3 9 -6 18 -6 20 0
2 -7 4 -15 4 -8 0 -15 -9 -15 -20z"/>
<path d="M5410 2100 c0 -18 7 -20 59 -20 54 0 59 2 54 20 -5 17 -14 20 -59 20
-47 0 -54 -2 -54 -20z"/>
<path d="M5577 2100 c-4 -15 0 -20 14 -20 12 0 19 7 19 20 0 11 -6 20 -14 20
-7 0 -16 -9 -19 -20z"/>
<path d="M5650 2100 c0 -13 7 -20 20 -20 13 0 20 7 20 20 0 13 -7 20 -20 20
-13 0 -20 -7 -20 -20z"/>
<path d="M5820 2100 c0 -11 7 -20 15 -20 8 0 15 9 15 20 0 11 -7 20 -15 20 -8
0 -15 -9 -15 -20z"/>
<path d="M5890 2100 c0 -13 7 -20 20 -20 13 0 20 7 20 20 0 13 -7 20 -20 20
-13 0 -20 -7 -20 -20z"/>
<path d="M7977 2100 c-5 -18 0 -20 54 -20 52 0 59 2 59 20 0 18 -7 20 -54 20
-45 0 -54 -3 -59 -20z"/>
<path d="M8130 2100 c0 -13 7 -20 19 -20 14 0 18 5 14 20 -3 11 -12 20 -19 20
-8 0 -14 -9 -14 -20z"/>
<path d="M8217 2100 c-4 -15 0 -20 15 -20 13 0 18 6 16 17 -5 24 -25 27 -31 3z"/>
<path d="M8370 2100 c0 -13 7 -20 19 -20 14 0 18 5 14 20 -3 11 -12 20 -19 20
-8 0 -14 -9 -14 -20z"/>
<path d="M8457 2100 c-4 -15 0 -20 15 -20 13 0 18 6 16 17 -5 24 -25 27 -31 3z"/>
<path d="M10530 2100 c0 -18 7 -20 60 -20 53 0 60 2 60 20 0 18 -7 20 -60 20
-53 0 -60 -2 -60 -20z"/>
<path d="M10690 2100 c0 -13 7 -20 20 -20 13 0 20 7 20 20 0 13 -7 20 -20 20
-13 0 -20 -7 -20 -20z"/>
<path d="M10770 2100 c0 -14 7 -20 21 -20 15 0 19 4 15 16 -3 9 -6 18 -6 20 0
2 -7 4 -15 4 -8 0 -15 -9 -15 -20z"/>
<path d="M10930 2100 c0 -13 7 -20 20 -20 13 0 20 7 20 20 0 13 -7 20 -20 20
-13 0 -20 -7 -20 -20z"/>
<path d="M11010 2100 c0 -14 7 -20 21 -20 15 0 19 4 15 16 -3 9 -6 18 -6 20 0
2 -7 4 -15 4 -8 0 -15 -9 -15 -20z"/>
<path d="M11337 2100 c-5 -18 0 -20 54 -20 52 0 59 2 59 20 0 18 -7 20 -54 20
-45 0 -54 -3 -59 -20z"/>
<path d="M11490 2100 c0 -13 7 -20 19 -20 14 0 18 5 14 20 -3 11 -12 20 -19
20 -8 0 -14 -9 -14 -20z"/>
<path d="M11577 2100 c-4 -15 0 -20 15 -20 13 0 18 6 16 17 -5 24 -25 27 -31
3z"/>
<path d="M11730 2100 c0 -13 7 -20 19 -20 14 0 18 5 14 20 -3 11 -12 20 -19
20 -8 0 -14 -9 -14 -20z"/>
<path d="M11817 2100 c-4 -15 0 -20 15 -20 13 0 18 6 16 17 -5 24 -25 27 -31
3z"/>
<path d="M13890 2100 c0 -18 7 -20 60 -20 53 0 60 2 60 20 0 18 -7 20 -60 20
-53 0 -60 -2 -60 -20z"/>
<path d="M14050 2100 c0 -13 7 -20 20 -20 13 0 20 7 20 20 0 13 -7 20 -20 20
-13 0 -20 -7 -20 -20z"/>
<path d="M14130 2100 c0 -14 7 -20 21 -20 15 0 19 4 15 16 -3 9 -6 18 -6 20 0
2 -7 4 -15 4 -8 0 -15 -9 -15 -20z"/>
<path d="M14290 2100 c0 -13 7 -20 20 -20 13 0 20 7 20 20 0 13 -7 20 -20 20
-13 0 -20 -7 -20 -20z"/>
<path d="M14370 2100 c0 -14 7 -20 21 -20 15 0 19 4 15 16 -3 9 -6 18 -6 20 0
2 -7 4 -15 4 -8 0 -15 -9 -15 -20z"/>
<path d="M16450 2100 c0 -18 7 -20 59 -20 54 0 59 2 54 20 -5 17 -14 20 -59
20 -47 0 -54 -2 -54 -20z"/>
<path d="M16617 2100 c-4 -15 0 -20 14 -20 12 0 19 7 19 20 0 11 -6 20 -14 20
-7 0 -16 -9 -19 -20z"/>
<path d="M16690 2100 c0 -13 7 -20 20 -20 13 0 20 7 20 20 0 13 -7 20 -20 20
-13 0 -20 -7 -20 -20z"/>
<path d="M16860 2100 c0 -11 7 -20 15 -20 8 0 15 9 15 20 0 11 -7 20 -15 20
-8 0 -15 -9 -15 -20z"/>
<path d="M16930 2100 c0 -13 7 -20 20 -20 13 0 20 7 20 20 0 13 -7 20 -20 20
-13 0 -20 -7 -20 -20z"/>
<path d="M19017 2100 c-5 -18 0 -20 54 -20 52 0 59 2 59 20 0 18 -7 20 -54 20
-45 0 -54 -3 -59 -20z"/>
<path d="M19170 2100 c0 -11 7 -20 15 -20 8 0 15 9 15 20 0 11 -7 20 -15 20
-8 0 -15 -9 -15 -20z"/>
</g>
</svg>
